<?xml version="1.0" encoding="UTF-8" standalone="no"?>
<svg xmlns="http://www.w3.org/2000/svg" version="1.2" baseProfile="tiny" viewBox="0.00 0.00 1024.00 1024.00" width="1024.00" height="1024.00">
<g stroke-width="2.00" fill="none" stroke-linecap="butt">
<path stroke="#8080bf" vector-effect="non-scaling-stroke" d="
  M 107.50 279.29
  L 107.46 449.25
  A 0.54 0.54 0.0 0 0 108.00 449.79
  L 130.22 449.82
  Q 130.75 449.82 130.75 449.28
  L 130.76 279.23
  Q 130.76 278.71 131.27 278.71
  L 186.02 278.72
  A 0.98 0.97 -0.3 0 0 187.00 277.74
  L 187.00 257.74
  Q 187.00 256.99 186.24 256.99
  L 52.21 257.02
  Q 51.43 257.02 51.43 257.79
  L 51.32 277.15
  Q 51.32 278.12 52.23 278.45
  Q 53.15 278.79 54.75 278.78
  Q 80.87 278.63 106.98 278.77
  Q 107.50 278.77 107.50 279.29"
/>
<path stroke="#8080bf" vector-effect="non-scaling-stroke" d="
  M 362.66 429.00
  Q 364.74 428.13 365.79 429.74
  C 387.66 463.26 439.24 459.97 461.83 429.86
  C 474.62 412.81 476.73 391.05 475.11 370.50
  C 472.26 334.51 444.95 306.69 408.00 309.50
  C 391.04 310.79 375.63 318.41 366.19 333.02
  C 365.30 334.40 364.15 334.70 362.69 334.24
  Q 362.19 334.09 362.19 333.56
  L 362.17 313.71
  A 0.46 0.46 0.0 0 0 361.71 313.25
  L 340.75 313.25
  A 0.26 0.25 0.0 0 0 340.49 313.50
  L 340.49 504.22
  A 0.48 0.47 0.0 0 0 340.97 504.69
  L 361.22 504.66
  Q 362.10 504.66 362.10 503.78
  L 362.19 429.70
  Q 362.19 429.20 362.66 429.00"
/>
<path stroke="#8080bf" vector-effect="non-scaling-stroke" d="
  M 505.28 388.25
  L 613.99 388.25
  Q 614.42 388.25 614.45 387.81
  Q 615.17 373.51 614.33 366.01
  C 611.56 341.12 595.91 321.13 572.46 312.77
  C 563.76 309.68 552.84 308.77 543.76 309.50
  C 518.62 311.52 496.14 327.70 487.34 351.77
  C 482.93 363.85 482.37 376.02 483.12 389.19
  C 485.34 428.47 514.29 455.41 553.53 453.64
  C 581.85 452.36 604.20 438.73 612.75 410.94
  Q 612.89 410.50 612.45 410.38
  L 593.37 405.14
  A 1.21 1.20 17.2 0 0 591.92 405.90
  Q 583.96 428.81 560.02 432.40
  Q 544.65 434.70 532.30 430.47
  C 514.72 424.44 505.52 406.76 504.83 388.72
  Q 504.81 388.25 505.28 388.25"
/>
<path stroke="#8080bf" vector-effect="non-scaling-stroke" d="
  M 652.27 333.52
  L 652.27 429.03
  Q 652.27 429.59 651.72 429.59
  L 621.66 429.56
  Q 621.14 429.56 621.14 430.09
  L 621.10 449.44
  Q 621.10 449.81 621.47 449.81
  L 708.47 449.82
  A 0.29 0.29 0.0 0 0 708.76 449.53
  L 708.74 430.01
  A 0.48 0.48 0.0 0 0 708.26 429.53
  L 674.55 429.60
  Q 674.12 429.60 674.12 429.17
  Q 674.06 398.67 674.32 369.50
  C 674.51 348.33 684.96 328.86 708.98 330.08
  C 721.12 330.69 732.30 337.77 735.88 349.78
  Q 738.13 357.30 738.19 364.95
  A 0.68 0.68 0.0 0 0 738.97 365.62
  L 760.47 362.42
  A 0.46 0.45 85.6 0 0 760.85 361.97
  Q 760.78 348.65 755.74 336.35
  Q 747.21 315.58 725.22 310.66
  C 706.30 306.43 686.60 312.21 677.70 330.24
  Q 676.79 332.09 674.58 331.32
  Q 674.15 331.17 674.15 330.72
  L 674.19 313.84
  A 0.60 0.59 0.0 0 0 673.59 313.25
  L 624.77 313.25
  Q 624.30 313.25 624.30 313.73
  L 624.33 332.44
  A 0.61 0.60 0.0 0 0 624.94 333.04
  L 651.77 333.03
  Q 652.27 333.03 652.27 333.52"
/>
<path stroke="#8080bf" vector-effect="non-scaling-stroke" d="
  M 300.96 425.78
  Q 301.15 458.08 300.96 477.26
  C 300.90 483.65 296.57 484.76 290.90 484.75
  Q 257.53 484.71 224.13 484.85
  Q 223.61 484.85 223.60 485.37
  L 223.48 503.39
  Q 223.48 504.34 224.42 504.42
  Q 228.31 504.74 232.00 504.73
  Q 267.12 504.61 302.25 504.63
  C 313.63 504.64 322.76 495.56 322.77 484.50
  Q 322.80 399.12 322.78 313.77
  Q 322.78 313.24 322.24 313.24
  L 301.50 313.26
  A 0.48 0.47 -0.0 0 0 301.02 313.73
  Q 301.06 350.13 300.87 386.25
  C 300.76 409.37 288.54 431.59 263.00 433.07
  Q 251.52 433.74 242.31 429.95
  C 226.92 423.60 223.80 406.62 223.79 391.50
  Q 223.75 352.62 223.77 313.76
  Q 223.77 313.24 223.25 313.24
  L 202.54 313.25
  Q 202.20 313.25 202.20 313.60
  Q 202.16 353.07 201.93 392.50
  C 201.83 408.87 205.05 426.48 216.53 439.00
  C 228.37 451.91 247.36 455.86 263.76 452.75
  C 279.34 449.78 289.82 440.18 297.39 426.37
  C 298.09 425.10 299.13 424.73 300.46 425.11
  Q 300.95 425.26 300.96 425.78"
/>
<path stroke="#8080bf" vector-effect="non-scaling-stroke" d="
  M 159.90 617.02
  A 0.50 0.50 0.0 0 1 159.40 617.52
  L 78.74 617.52
  A 0.50 0.50 0.0 0 1 78.24 617.02
  L 78.25 532.74
  A 0.50 0.50 0.0 0 0 77.75 532.24
  L 55.42 532.24
  A 0.50 0.50 0.0 0 0 54.92 532.74
  L 54.92 724.55
  A 0.50 0.50 0.0 0 0 55.42 725.05
  L 77.74 725.06
  A 0.50 0.50 0.0 0 0 78.24 724.56
  L 78.25 639.72
  A 0.50 0.50 0.0 0 1 78.75 639.22
  L 159.43 639.20
  A 0.50 0.50 0.0 0 1 159.93 639.70
  L 159.88 724.64
  A 0.50 0.50 0.0 0 0 160.38 725.14
  L 182.95 725.02
  A 0.50 0.50 0.0 0 0 183.45 724.52
  L 183.45 532.75
  A 0.50 0.50 0.0 0 0 182.95 532.25
  L 160.42 532.23
  A 0.50 0.50 0.0 0 0 159.92 532.73
  L 159.90 617.02"
/>
<path stroke="#8080bf" vector-effect="non-scaling-stroke" d="
  M 548.96 608.26
  L 601.00 608.23
  A 0.48 0.48 0.0 0 0 601.48 607.75
  L 601.49 588.83
  A 0.46 0.46 0.0 0 0 601.03 588.37
  L 549.16 588.37
  A 0.46 0.45 -90.0 0 1 548.71 587.91
  L 548.70 532.98
  Q 548.70 532.25 547.97 532.25
  L 527.25 532.25
  A 0.26 0.25 0.0 0 0 526.99 532.50
  L 526.97 587.81
  A 0.53 0.53 0.0 0 1 526.44 588.34
  L 484.68 588.39
  A 0.68 0.67 90.0 0 0 484.01 589.07
  L 484.02 607.76
  A 0.50 0.49 90.0 0 0 484.51 608.26
  L 526.74 608.24
  A 0.29 0.29 0.0 0 1 527.03 608.53
  Q 526.97 654.74 526.77 701.00
  C 526.73 710.59 530.39 720.01 539.53 723.50
  Q 543.56 725.04 554.63 725.04
  Q 574.48 725.05 594.39 725.07
  A 0.35 0.35 0.0 0 0 594.74 724.72
  L 594.72 705.59
  Q 594.72 704.68 593.81 704.68
  Q 574.88 704.82 555.38 704.68
  C 550.04 704.65 548.72 700.92 548.72 696.08
  Q 548.69 652.34 548.71 608.52
  Q 548.71 608.26 548.96 608.26"
/>
<path stroke="#8080bf" vector-effect="non-scaling-stroke" d="
  M 218.66 663.46
  L 327.26 663.47
  A 0.77 0.77 0.0 0 0 328.03 662.72
  C 328.41 650.57 328.81 637.69 324.37 625.79
  C 317.32 606.91 302.38 593.10 283.11 587.04
  C 278.05 585.45 272.62 584.93 267.25 584.59
  C 238.10 582.76 212.01 598.90 201.18 626.07
  C 196.01 639.04 195.61 652.33 196.70 666.07
  C 198.43 687.88 209.20 708.66 228.26 719.85
  C 242.41 728.17 258.53 730.06 275.01 728.02
  C 300.49 724.86 318.18 710.43 326.21 686.32
  A 0.65 0.65 0.0 0 0 325.76 685.49
  L 306.47 680.23
  A 0.71 0.71 0.0 0 0 305.62 680.65
  C 299.70 695.07 292.64 703.08 276.78 706.74
  C 249.99 712.92 224.88 701.56 219.22 672.99
  Q 218.58 669.76 218.15 664.00
  Q 218.11 663.46 218.66 663.46"
/>
<path stroke="#8080bf" vector-effect="non-scaling-stroke" d="
  M 408.97 643.49
  A 3.77 3.77 0.0 0 1 402.53 643.49
  L 369.47 589.03
  A 1.40 1.39 74.1 0 0 368.28 588.36
  L 345.03 588.36
  A 0.49 0.49 0.0 0 0 344.61 589.11
  Q 364.24 620.82 383.62 652.14
  Q 385.36 654.95 384.06 657.01
  Q 362.62 690.78 341.20 724.47
  A 0.38 0.37 -73.5 0 0 341.51 725.05
  L 365.56 725.06
  A 1.20 1.20 0.0 0 0 366.58 724.49
  L 402.99 665.74
  Q 403.37 665.13 404.09 665.12
  L 406.97 665.08
  A 2.00 2.00 0.0 0 1 408.70 666.02
  L 445.02 724.67
  Q 445.26 725.05 445.70 725.05
  L 469.70 725.06
  A 0.54 0.54 0.0 0 0 470.16 724.23
  L 427.60 657.29
  A 4.32 4.32 0.0 0 1 427.58 652.70
  L 466.88 589.13
  A 0.50 0.50 0.0 0 0 466.45 588.37
  L 442.95 588.34
  A 0.86 0.85 -74.3 0 0 442.22 588.75
  L 408.97 643.49"
/>
<path stroke="#8080bf" vector-effect="non-scaling-stroke" d="
  M 427.32 428.83
  C 443.58 421.55 451.34 406.46 452.95 389.11
  C 454.32 374.34 452.21 358.23 442.70 346.55
  Q 429.05 329.80 406.49 330.16
  C 385.00 330.51 368.77 345.62 363.81 366.01
  C 359.76 382.68 362.27 401.37 372.09 415.09
  C 384.66 432.63 408.13 437.42 427.32 428.83"
/>
<path stroke="#8080bf" vector-effect="non-scaling-stroke" d="
  M 592.92 367.51
  C 590.12 344.03 571.23 329.19 548.02 330.14
  C 526.35 331.02 508.23 345.87 505.50 367.73
  Q 505.43 368.28 505.99 368.28
  L 592.25 368.27
  Q 593.02 368.27 592.92 367.51"
/>
<path stroke="#8080bf" vector-effect="non-scaling-stroke" d="
  M 289.06 612.99
  C 262.37 594.93 222.59 609.72 218.79 643.23
  A 0.23 0.23 0.0 0 0 219.02 643.49
  L 305.73 643.48
  A 0.62 0.61 86.7 0 0 306.34 642.79
  Q 303.93 623.06 289.06 612.99"
/>
</g>
<path fill="#00007f" d="
  M 0.00 0.00
  L 1024.00 0.00
  L 1024.00 1024.00
  L 0.00 1024.00
  L 0.00 0.00
  Z
  M 107.50 279.29
  L 107.46 449.25
  A 0.54 0.54 0.0 0 0 108.00 449.79
  L 130.22 449.82
  Q 130.75 449.82 130.75 449.28
  L 130.76 279.23
  Q 130.76 278.71 131.27 278.71
  L 186.02 278.72
  A 0.98 0.97 -0.3 0 0 187.00 277.74
  L 187.00 257.74
  Q 187.00 256.99 186.24 256.99
  L 52.21 257.02
  Q 51.43 257.02 51.43 257.79
  L 51.32 277.15
  Q 51.32 278.12 52.23 278.45
  Q 53.15 278.79 54.75 278.78
  Q 80.87 278.63 106.98 278.77
  Q 107.50 278.77 107.50 279.29
  Z
  M 362.66 429.00
  Q 364.74 428.13 365.79 429.74
  C 387.66 463.26 439.24 459.97 461.83 429.86
  C 474.62 412.81 476.73 391.05 475.11 370.50
  C 472.26 334.51 444.95 306.69 408.00 309.50
  C 391.04 310.79 375.63 318.41 366.19 333.02
  C 365.30 334.40 364.15 334.70 362.69 334.24
  Q 362.19 334.09 362.19 333.56
  L 362.17 313.71
  A 0.46 0.46 0.0 0 0 361.71 313.25
  L 340.75 313.25
  A 0.26 0.25 0.0 0 0 340.49 313.50
  L 340.49 504.22
  A 0.48 0.47 0.0 0 0 340.97 504.69
  L 361.22 504.66
  Q 362.10 504.66 362.10 503.78
  L 362.19 429.70
  Q 362.19 429.20 362.66 429.00
  Z
  M 505.28 388.25
  L 613.99 388.25
  Q 614.42 388.25 614.45 387.81
  Q 615.17 373.51 614.33 366.01
  C 611.56 341.12 595.91 321.13 572.46 312.77
  C 563.76 309.68 552.84 308.77 543.76 309.50
  C 518.62 311.52 496.14 327.70 487.34 351.77
  C 482.93 363.85 482.37 376.02 483.12 389.19
  C 485.34 428.47 514.29 455.41 553.53 453.64
  C 581.85 452.36 604.20 438.73 612.75 410.94
  Q 612.89 410.50 612.45 410.38
  L 593.37 405.14
  A 1.21 1.20 17.2 0 0 591.92 405.90
  Q 583.96 428.81 560.02 432.40
  Q 544.65 434.70 532.30 430.47
  C 514.72 424.44 505.52 406.76 504.83 388.72
  Q 504.81 388.25 505.28 388.25
  Z
  M 652.27 333.52
  L 652.27 429.03
  Q 652.27 429.59 651.72 429.59
  L 621.66 429.56
  Q 621.14 429.56 621.14 430.09
  L 621.10 449.44
  Q 621.10 449.81 621.47 449.81
  L 708.47 449.82
  A 0.29 0.29 0.0 0 0 708.76 449.53
  L 708.74 430.01
  A 0.48 0.48 0.0 0 0 708.26 429.53
  L 674.55 429.60
  Q 674.12 429.60 674.12 429.17
  Q 674.06 398.67 674.32 369.50
  C 674.51 348.33 684.96 328.86 708.98 330.08
  C 721.12 330.69 732.30 337.77 735.88 349.78
  Q 738.13 357.30 738.19 364.95
  A 0.68 0.68 0.0 0 0 738.97 365.62
  L 760.47 362.42
  A 0.46 0.45 85.6 0 0 760.85 361.97
  Q 760.78 348.65 755.74 336.35
  Q 747.21 315.58 725.22 310.66
  C 706.30 306.43 686.60 312.21 677.70 330.24
  Q 676.79 332.09 674.58 331.32
  Q 674.15 331.17 674.15 330.72
  L 674.19 313.84
  A 0.60 0.59 0.0 0 0 673.59 313.25
  L 624.77 313.25
  Q 624.30 313.25 624.30 313.73
  L 624.33 332.44
  A 0.61 0.60 0.0 0 0 624.94 333.04
  L 651.77 333.03
  Q 652.27 333.03 652.27 333.52
  Z
  M 300.96 425.78
  Q 301.15 458.08 300.96 477.26
  C 300.90 483.65 296.57 484.76 290.90 484.75
  Q 257.53 484.71 224.13 484.85
  Q 223.61 484.85 223.60 485.37
  L 223.48 503.39
  Q 223.48 504.34 224.42 504.42
  Q 228.31 504.74 232.00 504.73
  Q 267.12 504.61 302.25 504.63
  C 313.63 504.64 322.76 495.56 322.77 484.50
  Q 322.80 399.12 322.78 313.77
  Q 322.78 313.24 322.24 313.24
  L 301.50 313.26
  A 0.48 0.47 -0.0 0 0 301.02 313.73
  Q 301.06 350.13 300.87 386.25
  C 300.76 409.37 288.54 431.59 263.00 433.07
  Q 251.52 433.74 242.31 429.95
  C 226.92 423.60 223.80 406.62 223.79 391.50
  Q 223.75 352.62 223.77 313.76
  Q 223.77 313.24 223.25 313.24
  L 202.54 313.25
  Q 202.20 313.25 202.20 313.60
  Q 202.16 353.07 201.93 392.50
  C 201.83 408.87 205.05 426.48 216.53 439.00
  C 228.37 451.91 247.36 455.86 263.76 452.75
  C 279.34 449.78 289.82 440.18 297.39 426.37
  C 298.09 425.10 299.13 424.73 300.46 425.11
  Q 300.95 425.26 300.96 425.78
  Z
  M 159.90 617.02
  A 0.50 0.50 0.0 0 1 159.40 617.52
  L 78.74 617.52
  A 0.50 0.50 0.0 0 1 78.24 617.02
  L 78.25 532.74
  A 0.50 0.50 0.0 0 0 77.75 532.24
  L 55.42 532.24
  A 0.50 0.50 0.0 0 0 54.92 532.74
  L 54.92 724.55
  A 0.50 0.50 0.0 0 0 55.42 725.05
  L 77.74 725.06
  A 0.50 0.50 0.0 0 0 78.24 724.56
  L 78.25 639.72
  A 0.50 0.50 0.0 0 1 78.75 639.22
  L 159.43 639.20
  A 0.50 0.50 0.0 0 1 159.93 639.70
  L 159.88 724.64
  A 0.50 0.50 0.0 0 0 160.38 725.14
  L 182.95 725.02
  A 0.50 0.50 0.0 0 0 183.45 724.52
  L 183.45 532.75
  A 0.50 0.50 0.0 0 0 182.95 532.25
  L 160.42 532.23
  A 0.50 0.50 0.0 0 0 159.92 532.73
  L 159.90 617.02
  Z
  M 548.96 608.26
  L 601.00 608.23
  A 0.48 0.48 0.0 0 0 601.48 607.75
  L 601.49 588.83
  A 0.46 0.46 0.0 0 0 601.03 588.37
  L 549.16 588.37
  A 0.46 0.45 -90.0 0 1 548.71 587.91
  L 548.70 532.98
  Q 548.70 532.25 547.97 532.25
  L 527.25 532.25
  A 0.26 0.25 0.0 0 0 526.99 532.50
  L 526.97 587.81
  A 0.53 0.53 0.0 0 1 526.44 588.34
  L 484.68 588.39
  A 0.68 0.67 90.0 0 0 484.01 589.07
  L 484.02 607.76
  A 0.50 0.49 90.0 0 0 484.51 608.26
  L 526.74 608.24
  A 0.29 0.29 0.0 0 1 527.03 608.53
  Q 526.97 654.74 526.77 701.00
  C 526.73 710.59 530.39 720.01 539.53 723.50
  Q 543.56 725.04 554.63 725.04
  Q 574.48 725.05 594.39 725.07
  A 0.35 0.35 0.0 0 0 594.74 724.72
  L 594.72 705.59
  Q 594.72 704.68 593.81 704.68
  Q 574.88 704.82 555.38 704.68
  C 550.04 704.65 548.72 700.92 548.72 696.08
  Q 548.69 652.34 548.71 608.52
  Q 548.71 608.26 548.96 608.26
  Z
  M 218.66 663.46
  L 327.26 663.47
  A 0.77 0.77 0.0 0 0 328.03 662.72
  C 328.41 650.57 328.81 637.69 324.37 625.79
  C 317.32 606.91 302.38 593.10 283.11 587.04
  C 278.05 585.45 272.62 584.93 267.25 584.59
  C 238.10 582.76 212.01 598.90 201.18 626.07
  C 196.01 639.04 195.61 652.33 196.70 666.07
  C 198.43 687.88 209.20 708.66 228.26 719.85
  C 242.41 728.17 258.53 730.06 275.01 728.02
  C 300.49 724.86 318.18 710.43 326.21 686.32
  A 0.65 0.65 0.0 0 0 325.76 685.49
  L 306.47 680.23
  A 0.71 0.71 0.0 0 0 305.62 680.65
  C 299.70 695.07 292.64 703.08 276.78 706.74
  C 249.99 712.92 224.88 701.56 219.22 672.99
  Q 218.58 669.76 218.15 664.00
  Q 218.11 663.46 218.66 663.46
  Z
  M 408.97 643.49
  A 3.77 3.77 0.0 0 1 402.53 643.49
  L 369.47 589.03
  A 1.40 1.39 74.1 0 0 368.28 588.36
  L 345.03 588.36
  A 0.49 0.49 0.0 0 0 344.61 589.11
  Q 364.24 620.82 383.62 652.14
  Q 385.36 654.95 384.06 657.01
  Q 362.62 690.78 341.20 724.47
  A 0.38 0.37 -73.5 0 0 341.51 725.05
  L 365.56 725.06
  A 1.20 1.20 0.0 0 0 366.58 724.49
  L 402.99 665.74
  Q 403.37 665.13 404.09 665.12
  L 406.97 665.08
  A 2.00 2.00 0.0 0 1 408.70 666.02
  L 445.02 724.67
  Q 445.26 725.05 445.70 725.05
  L 469.70 725.06
  A 0.54 0.54 0.0 0 0 470.16 724.23
  L 427.60 657.29
  A 4.32 4.32 0.0 0 1 427.58 652.70
  L 466.88 589.13
  A 0.50 0.50 0.0 0 0 466.45 588.37
  L 442.95 588.34
  A 0.86 0.85 -74.3 0 0 442.22 588.75
  L 408.97 643.49
  Z"
/>
<path fill="#ffffff" d="
  M 106.98 278.77
  Q 80.87 278.63 54.75 278.78
  Q 53.15 278.79 52.23 278.45
  Q 51.32 278.12 51.32 277.15
  L 51.43 257.79
  Q 51.43 257.02 52.21 257.02
  L 186.24 256.99
  Q 187.00 256.99 187.00 257.74
  L 187.00 277.74
  A 0.98 0.97 -0.3 0 1 186.02 278.72
  L 131.27 278.71
  Q 130.76 278.71 130.76 279.23
  L 130.75 449.28
  Q 130.75 449.82 130.22 449.82
  L 108.00 449.79
  A 0.54 0.54 0.0 0 1 107.46 449.25
  L 107.50 279.29
  Q 107.50 278.77 106.98 278.77
  Z"
/>
<path fill="#ffffff" d="
  M 362.19 429.70
  L 362.10 503.78
  Q 362.10 504.66 361.22 504.66
  L 340.97 504.69
  A 0.48 0.47 0.0 0 1 340.49 504.22
  L 340.49 313.50
  A 0.26 0.25 -0.0 0 1 340.75 313.25
  L 361.71 313.25
  A 0.46 0.46 0.0 0 1 362.17 313.71
  L 362.19 333.56
  Q 362.19 334.09 362.69 334.24
  C 364.15 334.70 365.30 334.40 366.19 333.02
  C 375.63 318.41 391.04 310.79 408.00 309.50
  C 444.95 306.69 472.26 334.51 475.11 370.50
  C 476.73 391.05 474.62 412.81 461.83 429.86
  C 439.24 459.97 387.66 463.26 365.79 429.74
  Q 364.74 428.13 362.66 429.00
  Q 362.19 429.20 362.19 429.70
  Z
  M 427.32 428.83
  C 443.58 421.55 451.34 406.46 452.95 389.11
  C 454.32 374.34 452.21 358.23 442.70 346.55
  Q 429.05 329.80 406.49 330.16
  C 385.00 330.51 368.77 345.62 363.81 366.01
  C 359.76 382.68 362.27 401.37 372.09 415.09
  C 384.66 432.63 408.13 437.42 427.32 428.83
  Z"
/>
<path fill="#ffffff" d="
  M 504.83 388.72
  C 505.52 406.76 514.72 424.44 532.30 430.47
  Q 544.65 434.70 560.02 432.40
  Q 583.96 428.81 591.92 405.90
  A 1.21 1.20 17.2 0 1 593.37 405.14
  L 612.45 410.38
  Q 612.89 410.50 612.75 410.94
  C 604.20 438.73 581.85 452.36 553.53 453.64
  C 514.29 455.41 485.34 428.47 483.12 389.19
  C 482.37 376.02 482.93 363.85 487.34 351.77
  C 496.14 327.70 518.62 311.52 543.76 309.50
  C 552.84 308.77 563.76 309.68 572.46 312.77
  C 595.91 321.13 611.56 341.12 614.33 366.01
  Q 615.17 373.51 614.45 387.81
  Q 614.42 388.25 613.99 388.25
  L 505.28 388.25
  Q 504.81 388.25 504.83 388.72
  Z
  M 592.92 367.51
  C 590.12 344.03 571.23 329.19 548.02 330.14
  C 526.35 331.02 508.23 345.87 505.50 367.73
  Q 505.43 368.28 505.99 368.28
  L 592.25 368.27
  Q 593.02 368.27 592.92 367.51
  Z"
/>
<path fill="#ffffff" d="
  M 651.77 333.03
  L 624.94 333.04
  A 0.61 0.60 -0.0 0 1 624.33 332.44
  L 624.30 313.73
  Q 624.30 313.25 624.77 313.25
  L 673.59 313.25
  A 0.60 0.59 -0.0 0 1 674.19 313.84
  L 674.15 330.72
  Q 674.15 331.17 674.58 331.32
  Q 676.79 332.09 677.70 330.24
  C 686.60 312.21 706.30 306.43 725.22 310.66
  Q 747.21 315.58 755.74 336.35
  Q 760.78 348.65 760.85 361.97
  A 0.46 0.45 85.6 0 1 760.47 362.42
  L 738.97 365.62
  A 0.68 0.68 0.0 0 1 738.19 364.95
  Q 738.13 357.30 735.88 349.78
  C 732.30 337.77 721.12 330.69 708.98 330.08
  C 684.96 328.86 674.51 348.33 674.32 369.50
  Q 674.06 398.67 674.12 429.17
  Q 674.12 429.60 674.55 429.60
  L 708.26 429.53
  A 0.48 0.48 0.0 0 1 708.74 430.01
  L 708.76 449.53
  A 0.29 0.29 0.0 0 1 708.47 449.82
  L 621.47 449.81
  Q 621.10 449.81 621.10 449.44
  L 621.14 430.09
  Q 621.14 429.56 621.66 429.56
  L 651.72 429.59
  Q 652.27 429.59 652.27 429.03
  L 652.27 333.52
  Q 652.27 333.03 651.77 333.03
  Z"
/>
<path fill="#ffffff" d="
  M 300.46 425.11
  C 299.13 424.73 298.09 425.10 297.39 426.37
  C 289.82 440.18 279.34 449.78 263.76 452.75
  C 247.36 455.86 228.37 451.91 216.53 439.00
  C 205.05 426.48 201.83 408.87 201.93 392.50
  Q 202.16 353.07 202.20 313.60
  Q 202.20 313.25 202.54 313.25
  L 223.25 313.24
  Q 223.77 313.24 223.77 313.76
  Q 223.75 352.62 223.79 391.50
  C 223.80 406.62 226.92 423.60 242.31 429.95
  Q 251.52 433.74 263.00 433.07
  C 288.54 431.59 300.76 409.37 300.87 386.25
  Q 301.06 350.13 301.02 313.73
  A 0.48 0.47 0.0 0 1 301.50 313.26
  L 322.24 313.24
  Q 322.78 313.24 322.78 313.77
  Q 322.80 399.12 322.77 484.50
  C 322.76 495.56 313.63 504.64 302.25 504.63
  Q 267.12 504.61 232.00 504.73
  Q 228.31 504.74 224.42 504.42
  Q 223.48 504.34 223.48 503.39
  L 223.60 485.37
  Q 223.61 484.85 224.13 484.85
  Q 257.53 484.71 290.90 484.75
  C 296.57 484.76 300.90 483.65 300.96 477.26
  Q 301.15 458.08 300.96 425.78
  Q 300.95 425.26 300.46 425.11
  Z"
/>
<path fill="#00007f" d="
  M 427.32 428.83
  C 408.13 437.42 384.66 432.63 372.09 415.09
  C 362.27 401.37 359.76 382.68 363.81 366.01
  C 368.77 345.62 385.00 330.51 406.49 330.16
  Q 429.05 329.80 442.70 346.55
  C 452.21 358.23 454.32 374.34 452.95 389.11
  C 451.34 406.46 443.58 421.55 427.32 428.83
  Z"
/>
<path fill="#00007f" d="
  M 548.02 330.14
  C 571.23 329.19 590.12 344.03 592.92 367.51
  Q 593.02 368.27 592.25 368.27
  L 505.99 368.28
  Q 505.43 368.28 505.50 367.73
  C 508.23 345.87 526.35 331.02 548.02 330.14
  Z"
/>
<path fill="#ffffff" d="
  M 159.90 617.02
  L 159.92 532.73
  A 0.50 0.50 0.0 0 1 160.42 532.23
  L 182.95 532.25
  A 0.50 0.50 0.0 0 1 183.45 532.75
  L 183.45 724.52
  A 0.50 0.50 0.0 0 1 182.95 725.02
  L 160.38 725.14
  A 0.50 0.50 0.0 0 1 159.88 724.64
  L 159.93 639.70
  A 0.50 0.50 0.0 0 0 159.43 639.20
  L 78.75 639.22
  A 0.50 0.50 0.0 0 0 78.25 639.72
  L 78.24 724.56
  A 0.50 0.50 0.0 0 1 77.74 725.06
  L 55.42 725.05
  A 0.50 0.50 0.0 0 1 54.92 724.55
  L 54.92 532.74
  A 0.50 0.50 0.0 0 1 55.42 532.24
  L 77.75 532.24
  A 0.50 0.50 0.0 0 1 78.25 532.74
  L 78.24 617.02
  A 0.50 0.50 0.0 0 0 78.74 617.52
  L 159.40 617.52
  A 0.50 0.50 0.0 0 0 159.90 617.02
  Z"
/>
<path fill="#ffffff" d="
  M 548.96 608.26
  Q 548.71 608.26 548.71 608.52
  Q 548.69 652.34 548.72 696.08
  C 548.72 700.92 550.04 704.65 555.38 704.68
  Q 574.88 704.82 593.81 704.68
  Q 594.72 704.68 594.72 705.59
  L 594.74 724.72
  A 0.35 0.35 0.0 0 1 594.39 725.07
  Q 574.48 725.05 554.63 725.04
  Q 543.56 725.04 539.53 723.50
  C 530.39 720.01 526.73 710.59 526.77 701.00
  Q 526.97 654.74 527.03 608.53
  A 0.29 0.29 0.0 0 0 526.74 608.24
  L 484.51 608.26
  A 0.50 0.49 90.0 0 1 484.02 607.76
  L 484.01 589.07
  A 0.68 0.67 90.0 0 1 484.68 588.39
  L 526.44 588.34
  A 0.53 0.53 0.0 0 0 526.97 587.81
  L 526.99 532.50
  A 0.26 0.25 -0.0 0 1 527.25 532.25
  L 547.97 532.25
  Q 548.70 532.25 548.70 532.98
  L 548.71 587.91
  A 0.46 0.45 90.0 0 0 549.16 588.37
  L 601.03 588.37
  A 0.46 0.46 0.0 0 1 601.49 588.83
  L 601.48 607.75
  A 0.48 0.48 0.0 0 1 601.00 608.23
  L 548.96 608.26
  Z"
/>
<path fill="#ffffff" d="
  M 218.15 664.00
  Q 218.58 669.76 219.22 672.99
  C 224.88 701.56 249.99 712.92 276.78 706.74
  C 292.64 703.08 299.70 695.07 305.62 680.65
  A 0.71 0.71 0.0 0 1 306.47 680.23
  L 325.76 685.49
  A 0.65 0.65 0.0 0 1 326.21 686.32
  C 318.18 710.43 300.49 724.86 275.01 728.02
  C 258.53 730.06 242.41 728.17 228.26 719.85
  C 209.20 708.66 198.43 687.88 196.70 666.07
  C 195.61 652.33 196.01 639.04 201.18 626.07
  C 212.01 598.90 238.10 582.76 267.25 584.59
  C 272.62 584.93 278.05 585.45 283.11 587.04
  C 302.38 593.10 317.32 606.91 324.37 625.79
  C 328.81 637.69 328.41 650.57 328.03 662.72
  A 0.77 0.77 0.0 0 1 327.26 663.47
  L 218.66 663.46
  Q 218.11 663.46 218.15 664.00
  Z
  M 289.06 612.99
  C 262.37 594.93 222.59 609.72 218.79 643.23
  A 0.23 0.23 0.0 0 0 219.02 643.49
  L 305.73 643.48
  A 0.62 0.61 86.7 0 0 306.34 642.79
  Q 303.93 623.06 289.06 612.99
  Z"
/>
<path fill="#ffffff" d="
  M 408.97 643.49
  L 442.22 588.75
  A 0.86 0.85 -74.3 0 1 442.95 588.34
  L 466.45 588.37
  A 0.50 0.50 0.0 0 1 466.88 589.13
  L 427.58 652.70
  A 4.32 4.32 0.0 0 0 427.60 657.29
  L 470.16 724.23
  A 0.54 0.54 0.0 0 1 469.70 725.06
  L 445.70 725.05
  Q 445.26 725.05 445.02 724.67
  L 408.70 666.02
  A 2.00 2.00 0.0 0 0 406.97 665.08
  L 404.09 665.12
  Q 403.37 665.13 402.99 665.74
  L 366.58 724.49
  A 1.20 1.20 0.0 0 1 365.56 725.06
  L 341.51 725.05
  A 0.38 0.37 -73.5 0 1 341.20 724.47
  Q 362.62 690.78 384.06 657.01
  Q 385.36 654.95 383.62 652.14
  Q 364.24 620.82 344.61 589.11
  A 0.49 0.49 0.0 0 1 345.03 588.36
  L 368.28 588.36
  A 1.40 1.39 74.1 0 1 369.47 589.03
  L 402.53 643.49
  A 3.77 3.77 0.0 0 0 408.97 643.49
  Z"
/>
<path fill="#00007f" d="
  M 218.79 643.23
  C 222.59 609.72 262.37 594.93 289.06 612.99
  Q 303.93 623.06 306.34 642.79
  A 0.62 0.61 86.7 0 1 305.73 643.48
  L 219.02 643.49
  A 0.23 0.23 0.0 0 1 218.79 643.23
  Z"
/>
</svg>
