<?xml version="1.0" encoding="UTF-8" standalone="no"?>
<svg xmlns="http://www.w3.org/2000/svg" version="1.2" baseProfile="tiny" viewBox="0.00 0.00 804.00 256.00" width="804.00" height="256.00">
<g stroke-width="2.00" fill="none" stroke-linecap="butt">
<path stroke="#8080bf" vector-effect="non-scaling-stroke" d="
  M 472.69 135.74
  A 0.32 0.32 0.0 0 1 473.01 136.06
  L 473.00 175.37
  A 0.32 0.32 0.0 0 0 473.32 175.69
  L 483.57 175.69
  A 0.32 0.32 0.0 0 0 483.89 175.37
  L 483.88 86.32
  A 0.32 0.32 0.0 0 0 483.56 86.00
  L 473.32 86.01
  A 0.32 0.32 0.0 0 0 473.00 86.33
  L 473.00 125.23
  A 0.32 0.32 0.0 0 1 472.68 125.55
  L 435.48 125.56
  A 0.32 0.32 0.0 0 1 435.16 125.24
  L 435.17 86.32
  A 0.32 0.32 0.0 0 0 434.85 86.00
  L 424.57 86.01
  A 0.32 0.32 0.0 0 0 424.25 86.33
  L 424.25 175.37
  A 0.32 0.32 0.0 0 0 424.57 175.69
  L 434.85 175.68
  A 0.32 0.32 0.0 0 0 435.17 175.36
  L 435.16 136.05
  A 0.32 0.32 0.0 0 1 435.48 135.73
  L 472.69 135.74"
/>
<path stroke="#8080bf" vector-effect="non-scaling-stroke" d="
  M 648.69 121.48
  Q 648.80 143.37 648.69 165.25
  Q 648.65 171.72 653.50 174.28
  Q 656.11 175.65 662.53 175.68
  Q 671.47 175.71 680.03 175.68
  A 0.43 0.43 0.0 0 0 680.46 175.25
  L 680.47 166.51
  A 0.46 0.45 -0.0 0 0 680.01 166.06
  L 661.72 166.06
  A 2.84 2.83 90.0 0 1 658.89 163.22
  L 658.88 121.35
  A 0.35 0.35 0.0 0 1 659.23 121.00
  L 683.01 121.00
  Q 683.51 121.00 683.51 120.49
  L 683.50 112.30
  A 0.45 0.44 -0.0 0 0 683.05 111.86
  L 659.51 111.88
  Q 658.88 111.88 658.88 111.26
  L 658.89 86.69
  Q 658.89 86.00 658.20 86.00
  L 649.23 86.00
  Q 648.72 86.00 648.72 86.52
  L 648.72 111.33
  Q 648.72 111.87 648.17 111.87
  L 629.32 111.86
  Q 628.75 111.86 628.75 112.43
  L 628.75 120.50
  Q 628.75 121.00 629.25 121.00
  L 648.21 121.00
  Q 648.68 121.00 648.69 121.48"
/>
<path stroke="#8080bf" vector-effect="non-scaling-stroke" d="
  M 502.28 146.91
  L 552.54 146.91
  A 0.44 0.43 -89.3 0 0 552.97 146.48
  C 553.08 142.08 553.22 137.35 552.31 133.25
  C 545.46 102.42 502.58 102.68 493.12 131.28
  C 491.65 135.73 491.66 139.64 491.68 144.50
  C 491.76 165.65 507.49 179.91 528.76 176.75
  Q 546.28 174.15 551.84 157.92
  Q 552.13 157.06 551.25 156.83
  L 543.07 154.67
  Q 542.53 154.53 542.35 155.06
  C 539.09 164.87 529.84 168.24 520.25 167.36
  C 509.13 166.33 502.41 158.42 501.75 147.46
  Q 501.72 146.91 502.28 146.91"
/>
<path stroke="#8080bf" vector-effect="non-scaling-stroke" d="
  M 589.06 137.53
  L 573.76 112.19
  Q 573.65 112.00 573.44 112.00
  L 562.33 112.03
  A 0.15 0.15 0.0 0 0 562.21 112.26
  L 580.84 142.42
  A 1.31 1.31 0.0 0 1 580.83 143.81
  L 560.96 174.86
  A 0.53 0.53 0.0 0 0 561.41 175.68
  L 571.71 175.69
  A 1.06 1.04 -73.8 0 0 572.60 175.19
  L 589.04 148.71
  A 1.98 1.97 -45.1 0 1 592.40 148.70
  L 608.87 175.19
  Q 609.19 175.71 609.80 175.70
  L 620.52 175.66
  A 0.28 0.28 0.0 0 0 620.75 175.23
  L 600.92 144.30
  Q 600.18 143.14 600.90 141.97
  L 619.06 112.56
  A 0.37 0.37 0.0 0 0 618.75 112.00
  L 608.01 112.02
  A 0.35 0.34 15.0 0 0 607.71 112.19
  L 592.38 137.53
  A 1.94 1.94 0.0 0 1 589.06 137.53"
/>
<path stroke="#8080bf" vector-effect="non-scaling-stroke" d="
  M 502.60 137.29
  L 542.52 137.23
  A 0.13 0.13 0.0 0 0 542.64 137.09
  L 542.64 137.03
  A 19.94 17.27 -0.1 0 0 522.67 119.80
  L 522.37 119.80
  A 19.94 17.27 -0.1 0 0 502.46 137.11
  L 502.47 137.17
  A 0.13 0.13 0.0 0 0 502.60 137.29"
/>
</g>
<path fill="#00007f" d="
  M 739.70 207.46
  A 0.49 0.49 0.0 0 1 739.21 207.95
  L 415.71 207.95
  A 0.49 0.49 0.0 0 1 415.22 207.46
  L 415.22 48.54
  A 0.49 0.49 0.0 0 1 415.71 48.05
  L 739.21 48.05
  A 0.49 0.49 0.0 0 1 739.70 48.54
  L 739.70 207.46
  Z
  M 472.69 135.74
  A 0.32 0.32 0.0 0 1 473.01 136.06
  L 473.00 175.37
  A 0.32 0.32 0.0 0 0 473.32 175.69
  L 483.57 175.69
  A 0.32 0.32 0.0 0 0 483.89 175.37
  L 483.88 86.32
  A 0.32 0.32 0.0 0 0 483.56 86.00
  L 473.32 86.01
  A 0.32 0.32 0.0 0 0 473.00 86.33
  L 473.00 125.23
  A 0.32 0.32 0.0 0 1 472.68 125.55
  L 435.48 125.56
  A 0.32 0.32 0.0 0 1 435.16 125.24
  L 435.17 86.32
  A 0.32 0.32 0.0 0 0 434.85 86.00
  L 424.57 86.01
  A 0.32 0.32 0.0 0 0 424.25 86.33
  L 424.25 175.37
  A 0.32 0.32 0.0 0 0 424.57 175.69
  L 434.85 175.68
  A 0.32 0.32 0.0 0 0 435.17 175.36
  L 435.16 136.05
  A 0.32 0.32 0.0 0 1 435.48 135.73
  L 472.69 135.74
  Z
  M 648.69 121.48
  Q 648.80 143.37 648.69 165.25
  Q 648.65 171.72 653.50 174.28
  Q 656.11 175.65 662.53 175.68
  Q 671.47 175.71 680.03 175.68
  A 0.43 0.43 0.0 0 0 680.46 175.25
  L 680.47 166.51
  A 0.46 0.45 -0.0 0 0 680.01 166.06
  L 661.72 166.06
  A 2.84 2.83 90.0 0 1 658.89 163.22
  L 658.88 121.35
  A 0.35 0.35 0.0 0 1 659.23 121.00
  L 683.01 121.00
  Q 683.51 121.00 683.51 120.49
  L 683.50 112.30
  A 0.45 0.44 -0.0 0 0 683.05 111.86
  L 659.51 111.88
  Q 658.88 111.88 658.88 111.26
  L 658.89 86.69
  Q 658.89 86.00 658.20 86.00
  L 649.23 86.00
  Q 648.72 86.00 648.72 86.52
  L 648.72 111.33
  Q 648.72 111.87 648.17 111.87
  L 629.32 111.86
  Q 628.75 111.86 628.75 112.43
  L 628.75 120.50
  Q 628.75 121.00 629.25 121.00
  L 648.21 121.00
  Q 648.68 121.00 648.69 121.48
  Z
  M 502.28 146.91
  L 552.54 146.91
  A 0.44 0.43 -89.3 0 0 552.97 146.48
  C 553.08 142.08 553.22 137.35 552.31 133.25
  C 545.46 102.42 502.58 102.68 493.12 131.28
  C 491.65 135.73 491.66 139.64 491.68 144.50
  C 491.76 165.65 507.49 179.91 528.76 176.75
  Q 546.28 174.15 551.84 157.92
  Q 552.13 157.06 551.25 156.83
  L 543.07 154.67
  Q 542.53 154.53 542.35 155.06
  C 539.09 164.87 529.84 168.24 520.25 167.36
  C 509.13 166.33 502.41 158.42 501.75 147.46
  Q 501.72 146.91 502.28 146.91
  Z
  M 589.06 137.53
  L 573.76 112.19
  Q 573.65 112.00 573.44 112.00
  L 562.33 112.03
  A 0.15 0.15 0.0 0 0 562.21 112.26
  L 580.84 142.42
  A 1.31 1.31 0.0 0 1 580.83 143.81
  L 560.96 174.86
  A 0.53 0.53 0.0 0 0 561.41 175.68
  L 571.71 175.69
  A 1.06 1.04 -73.8 0 0 572.60 175.19
  L 589.04 148.71
  A 1.98 1.97 -45.1 0 1 592.40 148.70
  L 608.87 175.19
  Q 609.19 175.71 609.80 175.70
  L 620.52 175.66
  A 0.28 0.28 0.0 0 0 620.75 175.23
  L 600.92 144.30
  Q 600.18 143.14 600.90 141.97
  L 619.06 112.56
  A 0.37 0.37 0.0 0 0 618.75 112.00
  L 608.01 112.02
  A 0.35 0.34 15.0 0 0 607.71 112.19
  L 592.38 137.53
  A 1.94 1.94 0.0 0 1 589.06 137.53
  Z"
/>
<path fill="#00007f" d="
  M 97.76 96.00
  L 72.34 95.99
  A 0.31 0.31 0.0 0 1 72.03 95.68
  L 72.05 86.34
  A 0.31 0.31 0.0 0 1 72.36 86.03
  L 134.54 86.03
  A 0.31 0.31 0.0 0 1 134.85 86.34
  L 134.86 95.69
  A 0.31 0.31 0.0 0 1 134.55 96.00
  L 109.13 96.00
  A 0.31 0.31 0.0 0 0 108.82 96.31
  L 108.82 175.11
  A 0.31 0.31 0.0 0 1 108.51 175.42
  L 98.38 175.42
  A 0.31 0.31 0.0 0 1 98.07 175.11
  L 98.07 96.31
  A 0.31 0.31 0.0 0 0 97.76 96.00
  Z"
/>
<path fill="#ffffff" d="
  M 472.69 135.74
  L 435.48 135.73
  A 0.32 0.32 0.0 0 0 435.16 136.05
  L 435.17 175.36
  A 0.32 0.32 0.0 0 1 434.85 175.68
  L 424.57 175.69
  A 0.32 0.32 0.0 0 1 424.25 175.37
  L 424.25 86.33
  A 0.32 0.32 0.0 0 1 424.57 86.01
  L 434.85 86.00
  A 0.32 0.32 0.0 0 1 435.17 86.32
  L 435.16 125.24
  A 0.32 0.32 0.0 0 0 435.48 125.56
  L 472.68 125.55
  A 0.32 0.32 0.0 0 0 473.00 125.23
  L 473.00 86.33
  A 0.32 0.32 0.0 0 1 473.32 86.01
  L 483.56 86.00
  A 0.32 0.32 0.0 0 1 483.88 86.32
  L 483.89 175.37
  A 0.32 0.32 0.0 0 1 483.57 175.69
  L 473.32 175.69
  A 0.32 0.32 0.0 0 1 473.00 175.37
  L 473.01 136.06
  A 0.32 0.32 0.0 0 0 472.69 135.74
  Z"
/>
<path fill="#ffffff" d="
  M 648.21 121.00
  L 629.25 121.00
  Q 628.75 121.00 628.75 120.50
  L 628.75 112.43
  Q 628.75 111.86 629.32 111.86
  L 648.17 111.87
  Q 648.72 111.87 648.72 111.33
  L 648.72 86.52
  Q 648.72 86.00 649.23 86.00
  L 658.20 86.00
  Q 658.89 86.00 658.89 86.69
  L 658.88 111.26
  Q 658.88 111.88 659.51 111.88
  L 683.05 111.86
  A 0.45 0.44 0.0 0 1 683.50 112.30
  L 683.51 120.49
  Q 683.51 121.00 683.01 121.00
  L 659.23 121.00
  A 0.35 0.35 0.0 0 0 658.88 121.35
  L 658.89 163.22
  A 2.84 2.83 -90.0 0 0 661.72 166.06
  L 680.01 166.06
  A 0.46 0.45 -0.0 0 1 680.47 166.51
  L 680.46 175.25
  A 0.43 0.43 0.0 0 1 680.03 175.68
  Q 671.47 175.71 662.53 175.68
  Q 656.11 175.65 653.50 174.28
  Q 648.65 171.72 648.69 165.25
  Q 648.80 143.37 648.69 121.48
  Q 648.68 121.00 648.21 121.00
  Z"
/>
<path fill="#ffffff" d="
  M 501.75 147.46
  C 502.41 158.42 509.13 166.33 520.25 167.36
  C 529.84 168.24 539.09 164.87 542.35 155.06
  Q 542.53 154.53 543.07 154.67
  L 551.25 156.83
  Q 552.13 157.06 551.84 157.92
  Q 546.28 174.15 528.76 176.75
  C 507.49 179.91 491.76 165.65 491.68 144.50
  C 491.66 139.64 491.65 135.73 493.12 131.28
  C 502.58 102.68 545.46 102.42 552.31 133.25
  C 553.22 137.35 553.08 142.08 552.97 146.48
  A 0.44 0.43 -89.3 0 1 552.54 146.91
  L 502.28 146.91
  Q 501.72 146.91 501.75 147.46
  Z
  M 502.60 137.29
  L 542.52 137.23
  A 0.13 0.13 0.0 0 0 542.64 137.09
  L 542.64 137.03
  A 19.94 17.27 -0.1 0 0 522.67 119.80
  L 522.37 119.80
  A 19.94 17.27 -0.1 0 0 502.46 137.11
  L 502.47 137.17
  A 0.13 0.13 0.0 0 0 502.60 137.29
  Z"
/>
<path fill="#00007f" d="
  M 219.75 165.85
  A 0.46 0.45 -8.8 0 0 219.43 166.28
  L 219.43 200.74
  A 0.25 0.25 0.0 0 1 219.18 200.99
  L 210.17 201.00
  A 0.29 0.29 0.0 0 1 209.88 200.71
  L 209.88 112.55
  A 0.32 0.32 0.0 0 1 210.20 112.23
  L 219.19 112.25
  Q 219.44 112.25 219.44 112.50
  L 219.40 121.45
  Q 219.40 121.91 219.85 121.99
  C 220.70 122.15 221.30 122.00 221.80 121.24
  Q 225.80 115.18 232.52 112.42
  C 233.20 112.14 234.38 112.13 235.16 111.58
  Q 235.56 111.30 236.04 111.23
  Q 237.32 111.04 238.60 110.98
  C 240.86 110.87 242.45 109.73 244.92 110.44
  C 246.90 111.01 248.16 110.98 249.99 111.20
  Q 250.48 111.26 250.88 111.55
  C 251.71 112.14 252.50 111.92 253.34 112.27
  Q 264.99 117.10 269.73 128.81
  C 269.98 129.43 269.85 130.49 270.54 131.16
  Q 270.91 131.52 270.90 132.03
  C 270.89 134.31 271.90 135.96 271.96 138.04
  Q 272.14 144.34 271.90 150.62
  C 271.86 151.90 271.12 152.68 271.04 154.01
  Q 270.97 155.13 270.33 157.02
  Q 267.12 166.57 259.89 171.75
  C 248.70 179.77 230.04 179.12 221.73 166.54
  C 221.27 165.84 220.49 165.62 219.75 165.85
  Z
  M 261.34 135.60
  C 254.78 111.33 220.89 115.99 219.40 141.00
  C 218.66 153.56 223.66 164.14 236.29 167.55
  C 240.09 168.58 245.94 167.96 249.52 166.26
  Q 260.81 160.89 261.99 148.50
  C 262.30 145.19 262.31 139.22 261.34 135.60
  Z"
/>
<path fill="#00007f" d="
  M 287.37 147.25
  C 287.76 149.39 287.79 151.53 288.39 153.48
  C 290.45 160.23 295.76 166.04 303.21 167.05
  Q 304.10 167.17 304.78 167.39
  Q 308.93 168.75 312.01 167.72
  Q 314.32 166.95 315.83 166.93
  Q 316.33 166.92 316.77 166.68
  C 318.08 165.99 319.56 165.58 320.69 164.92
  Q 326.24 161.67 328.09 155.56
  A 0.92 0.91 16.3 0 1 329.21 154.95
  L 336.87 157.04
  A 0.77 0.77 0.0 0 1 337.43 157.84
  Q 337.36 158.71 336.62 160.33
  Q 330.51 173.66 315.98 176.22
  C 297.74 179.44 281.21 170.07 278.23 150.97
  Q 277.14 144.00 278.38 134.09
  Q 278.44 133.60 278.68 133.18
  C 279.12 132.40 278.99 131.64 279.25 130.91
  Q 284.46 116.65 298.66 111.76
  C 300.26 111.20 302.30 111.15 304.18 110.55
  C 306.71 109.75 311.39 109.96 313.94 110.73
  C 315.32 111.15 316.63 111.00 317.96 111.45
  Q 333.89 116.87 338.00 133.49
  Q 338.78 136.65 338.15 146.35
  Q 338.12 146.75 337.72 146.75
  L 287.78 146.76
  Q 287.28 146.76 287.37 147.25
  Z
  M 328.94 136.01
  Q 326.68 126.72 320.03 122.68
  C 314.84 119.51 308.53 118.44 302.60 120.17
  Q 291.38 123.44 287.58 135.90
  A 1.23 1.23 0.0 0 0 288.75 137.49
  L 327.78 137.49
  A 1.20 1.19 83.3 0 0 328.94 136.01
  Z"
/>
<path fill="#00007f" d="
  M 357.71 121.00
  L 345.25 121.00
  Q 345.00 121.00 345.00 120.75
  L 345.00 112.26
  A 0.25 0.24 -90.0 0 1 345.24 112.01
  L 367.26 112.01
  Q 367.76 112.01 367.76 112.51
  L 367.76 119.77
  A 0.90 0.89 -81.8 0 0 368.40 120.63
  L 368.72 120.73
  Q 369.32 120.90 369.63 120.36
  C 372.58 115.24 376.06 111.86 382.12 111.02
  C 384.27 110.72 386.60 109.64 389.25 110.82
  A 2.01 2.01 0.0 0 0 390.21 110.98
  Q 391.99 110.86 393.94 111.56
  C 403.50 114.98 407.97 123.69 408.02 133.47
  A 1.31 1.31 0.0 0 1 406.89 134.78
  L 398.44 135.96
  A 0.42 0.42 0.0 0 1 397.96 135.51
  Q 398.22 132.74 397.39 129.71
  C 394.33 118.49 379.95 116.52 372.50 124.02
  Q 369.59 126.95 368.66 132.24
  Q 368.58 132.73 368.30 133.14
  Q 368.17 133.34 368.06 133.55
  Q 367.96 133.73 367.95 133.97
  Q 367.57 149.86 367.82 165.76
  Q 367.83 166.23 368.30 166.23
  L 383.72 166.19
  Q 384.00 166.19 384.00 166.47
  L 383.99 175.19
  Q 383.99 175.42 383.76 175.42
  L 343.83 175.42
  A 0.25 0.25 0.0 0 1 343.58 175.17
  L 343.58 166.57
  A 0.35 0.35 0.0 0 1 343.93 166.22
  L 357.71 166.22
  A 0.43 0.43 0.0 0 0 358.14 165.79
  L 358.16 121.46
  Q 358.16 121.00 357.71 121.00
  Z"
/>
<path fill="#ffffff" d="
  M 589.06 137.53
  A 1.94 1.94 0.0 0 0 592.38 137.53
  L 607.71 112.19
  A 0.35 0.34 15.0 0 1 608.01 112.02
  L 618.75 112.00
  A 0.37 0.37 0.0 0 1 619.06 112.56
  L 600.90 141.97
  Q 600.18 143.14 600.92 144.30
  L 620.75 175.23
  A 0.28 0.28 0.0 0 1 620.52 175.66
  L 609.80 175.70
  Q 609.19 175.71 608.87 175.19
  L 592.40 148.70
  A 1.98 1.97 -45.1 0 0 589.04 148.71
  L 572.60 175.19
  A 1.06 1.04 -73.8 0 1 571.71 175.69
  L 561.41 175.68
  A 0.53 0.53 0.0 0 1 560.96 174.86
  L 580.83 143.81
  A 1.31 1.31 0.0 0 0 580.84 142.42
  L 562.21 112.26
  A 0.15 0.15 0.0 0 1 562.33 112.03
  L 573.44 112.00
  Q 573.65 112.00 573.76 112.19
  L 589.06 137.53
  Z"
/>
<path fill="#00007f" d="
  M 189.03 163.82
  Q 187.78 164.14 186.89 165.91
  C 180.84 177.86 165.73 179.53 154.76 173.97
  C 151.87 172.50 148.29 168.05 146.75 164.84
  Q 143.90 158.92 143.76 153.00
  Q 143.53 143.36 143.68 112.58
  A 0.35 0.34 -89.1 0 1 144.02 112.24
  L 152.77 112.24
  Q 153.17 112.24 153.17 112.64
  Q 153.18 131.05 153.17 149.72
  C 153.17 152.00 154.11 154.09 154.12 156.57
  Q 154.12 157.06 154.37 157.49
  C 155.03 158.62 155.21 159.85 155.79 160.87
  C 159.31 167.00 168.66 169.76 175.09 167.29
  C 175.98 166.95 176.81 167.12 177.61 166.75
  Q 187.18 162.32 188.99 152.24
  C 189.32 150.38 189.91 148.52 189.91 146.97
  Q 189.89 129.57 189.90 112.56
  A 0.32 0.32 0.0 0 1 190.23 112.24
  L 199.21 112.25
  Q 199.44 112.25 199.44 112.47
  Q 199.43 150.06 199.44 187.76
  Q 199.44 193.68 198.22 196.02
  C 196.02 200.22 192.24 200.99 187.43 200.99
  Q 170.71 201.01 154.27 200.99
  Q 153.99 200.99 153.99 200.72
  L 153.99 192.26
  A 0.25 0.24 0.0 0 1 154.24 192.02
  L 186.57 192.02
  A 3.34 3.34 0.0 0 0 189.90 188.68
  L 189.89 164.49
  A 0.69 0.69 0.0 0 0 189.03 163.82
  Z"
/>
<path fill="#00007f" d="
  M 502.60 137.29
  A 0.13 0.13 0.0 0 1 502.47 137.17
  L 502.46 137.11
  A 19.94 17.27 -0.1 0 1 522.37 119.80
  L 522.67 119.80
  A 19.94 17.27 -0.1 0 1 542.64 137.03
  L 542.64 137.09
  A 0.13 0.13 0.0 0 1 542.52 137.23
  L 502.60 137.29
  Z"
/>
</svg>
